<svg xmlns="http://www.w3.org/2000/svg" version="1.1" xmlns:xlink="http://www.w3.org/1999/xlink" xmlns:svgjs="http://svgjs.dev/svgjs" viewBox="0 0 800 800"><defs><linearGradient x1="50%" y1="0%" x2="50%" y2="100%" id="uundulate-grad"><stop stop-color="hsl(0, 0%, 92%)" stop-opacity="1" offset="45%"></stop><stop stop-color="hsl(0, 0%, 83%)" stop-opacity="1" offset="100%"></stop></linearGradient></defs><g stroke-width="2" stroke="url(#uundulate-grad)" fill="none"><path d="M678.1190415178871 396.43849009052724C680.5828036720501 530.9241470463073 781.9711334964231 678.9393016827356 730.3918103288102 722.0981818149401C678.8124871611972 765.2570619471444 560.0891778707917 631.7469115434682 430.53829031334544 603.6011147251078C300.98740275589944 575.4553179067474 176.97487661773488 663.925091482809 108.54755005306924 586.99835708681C40.12022348840367 510.07162269081095 36.523344399057635 313.73422603752863 102.08712280294986 234.3527896243137C167.65090120684204 154.9713532110987 294.8206386446939 238.83949588611142 423.2536863917521 205.96746230337857C551.6867341388104 173.0954287206457 665.4688030042176 36.88556430487262 718.5657519888289 76.56702842719534C771.6627009734402 116.248492549518 675.6552793637242 261.9528331347474 678.1190415178871 396.43849009052724C680.5828036720501 530.9241470463073 781.9711334964231 678.9393016827356 730.3918103288102 722.0981818149401 "></path><path d="M672.0729435535037 396.5159692833199C674.4831456608371 528.0780250009309 773.6673813585935 672.8754588843932 723.2093478250588 715.0961024919845C672.7513142915244 757.3167460995758 556.608946507432 626.7089902698925 429.87438259253906 599.1750585997573C303.1398186776461 571.6411269296223 181.82321702074609 658.187644558378 114.8834410335732 582.9332304753356C47.943665046400326 507.67881639229313 44.424978980735716 315.609624014082 108.56345785410855 237.9538710011543C172.70193672748138 160.29811798822664 297.1071146558146 242.34304017030422 422.748139625763 210.18561601328304C548.3891645957112 178.0281918562618 659.697710224914 44.77941144952723 711.6403777098599 83.59823504745162C763.5830451948057 122.41705864537596 669.6627414461703 264.95391356570906 672.0729435535037 396.5159692833199C674.4831456608371 528.0780250009309 773.6673813585935 672.8754588843932 723.2093478250588 715.0961024919845 "></path><path d="M666.0268761066984 396.5933264058C668.3835181672022 525.2317808852417 765.3636597383415 666.8114940157384 716.0269158388857 708.0939010987165C666.6901719394298 749.3763081816946 553.1287456616506 621.6709469260043 429.2105053893108 594.7488804040944C305.29226511697095 567.8268138821844 186.67158794133542 652.4500755636345 121.21936253165524 578.8679817935486C55.76713712197511 505.2858880234626 52.32664407999198 317.48489992032285 115.03982342284536 241.5548303076825C177.7530027656988 165.62476069504214 299.39362118451345 245.84646238418463 422.24262337735195 214.40364765287507C545.0916255701902 182.96083292156538 653.9266479631884 52.673136523869346 704.7150339484688 90.62931959739541C755.5034199337492 128.58550267092147 663.6702340461947 267.95487192635824 666.0268761066984 396.5933264058C668.3835181672022 525.2317808852417 765.3636597383415 666.8114940157384 716.0269158388857 708.0939010987165 "></path><path d="M659.9808696950494 396.6707750810143C662.2839517087235 522.385628322287 757.0599991532462 660.7476206998177 708.8445448878688 701.0917912581828C660.6290906224914 741.4359618165477 549.6486058510253 616.6329951348503 428.5466892212387 590.3227937611656C307.4447725914522 564.0125923874809 191.52001989708094 646.7125981216254 127.55534506489357 574.8028246644959C63.590670232706145 502.8930512073664 60.228370214404436 319.3602673792981 121.51625002673848 245.15588116694505C182.80412983907246 170.9514949545919 301.68018874836866 249.34997615079942 421.73716816409706 218.62177084520135C541.7941475798254 187.8935655396033 648.1556467366191 60.566953150945835 697.789751222234 97.66049570007357C747.423855707849 134.7540382492013 657.6777876813753 270.9559218397417 659.9808696950494 396.6707750810143C662.2839517087235 522.385628322287 757.0599991532462 660.7476206998177 708.8445448878688 701.0917912581828 "></path><path d="M653.9347412130878 396.7481627210725C656.1842631799323 519.539414724176 748.7562164978383 654.683686348741 701.6620518665393 694.0896203824929C654.5678872352405 733.4955544162447 546.1683439700876 611.5949823085402 427.8827509828542 585.8966460830808C309.5971579956207 560.1983098576213 196.36832978251402 640.9750596444601 133.89120552781935 570.7376065002871C71.41408127312468 500.5001533561142 68.12997427850439 321.2355738031172 127.99255456031904 248.7568709910513C187.85513484213368 176.27816817898548 303.9666342419114 252.85342888225796 421.2315908805299 222.83983300237145C538.4965475191482 192.82623712248494 642.3845234397373 68.46070874286602 690.8643464256868 104.69161076759548C739.3441694116362 140.92251279232488 651.6852192462434 273.9569107179691 653.9347412130878 396.7481627210725C656.1842631799323 519.539414724176 748.7562164978383 654.683686348741 701.6620518665393 694.0896203824929 "></path><path d="M647.8886737662825 396.8256419138652C650.0846356862974 516.6932926787995 740.4524948775864 648.6198435503986 694.4796198803662 687.0875410595373C648.5067448831459 725.555238568676 542.6881431243062 606.5570610349646 427.21887377962594 581.4705899577302C311.7496044349456 556.3841188804961 201.21670070310336 635.2376127200291 140.22712702590144 566.6724798888126C79.23755334869946 498.10734705759614 76.0316393777606 323.11097177967054 134.46892012905585 252.35795236789198C192.9062008803511 181.60493295611343 306.25314077061023 256.35697316645087 420.72607463211875 227.05798671227592C535.1990084936272 197.75900025810103 636.6134611780119 76.35455588752063 683.9390026642958 111.72281738785176C731.2645441505798 147.09107888818284 645.6927118462677 276.9579911489308 647.8886737662825 396.8256419138652C650.0846356862974 516.6932926787995 740.4524948775864 648.6198435503986 694.4796198803662 687.0875410595373 "></path><path d="M641.8426063194772 396.90302955392326C643.9850081926625 513.8470790806884 732.1487732573347 642.5559091993217 687.297187894193 680.0853701838473C642.4456025310512 717.6148311683728 539.2079422785247 601.5190482086543 426.55499657639757 577.0444422796454C313.90205087427057 552.5698363506364 206.0650716236927 629.5000742428638 146.56304852398347 562.6072617246037C87.06102542427425 495.7144492063437 83.93330447701686 324.9862782034895 140.94528569779266 255.9589421919983C197.9572669185685 186.931606180507 308.5396472993092 259.86042589790935 420.2205583837076 231.27604886944602C531.9014694681061 202.69167184098268 630.8423989162864 84.24831147944087 677.0136589029049 118.75393245537367C723.1849188895235 153.25955343130641 639.700204446292 279.9589800271581 641.8426063194772 396.90302955392326C643.9850081926625 513.8470790806884 732.1487732573347 642.5559091993217 687.297187894193 680.0853701838473 "></path><path d="M635.7965999078282 396.9804477115596C637.8854417341838 511.00089600015554 723.8451126722392 636.4920053658232 680.114816943176 673.0832298257355C636.3845212141129 709.6744542856479 535.7278024678994 596.4810658999224 425.89118040832545 572.6183251191387C316.0545583487517 548.7555843383548 210.91350357943827 623.7625662832766 152.8990310572218 558.5420740779731C94.88455853500528 493.32158187266964 91.83503061142932 326.8616151448866 147.42171230168572 259.55996253368266C203.00839399194217 192.2583099224787 310.8262148631643 263.363909146946 419.71510317045295 235.49414154419424C528.6039914777414 207.6243739414425 625.0713976897171 92.14209758893924 670.0883761766702 125.7850780404737C715.1053546636232 159.42805849200818 633.7077580814727 282.9599994229634 635.7965999078282 396.9804477115596C637.8854417341838 511.00089600015554 723.8451126722392 636.4920053658232 680.114816943176 673.0832298257355 "></path><path d="M629.7504714258666 397.0578658691959C631.7857532053926 508.15471291962285 715.5413300168312 630.4281015323245 672.9323239218467 666.0810894676238C630.3233178268619 701.734077402923 532.2475405869617 591.4430835911905 425.22724216994106 568.1922079586318C318.2069437529202 544.9413323260733 215.76181346487135 618.0250583236893 159.23489152014758 554.4768864313423C102.70796957542382 490.92871453899545 99.73663467552927 328.73695208628385 153.89801683526633 263.16098287536715C208.05939899500333 197.58501366445046 313.112660356707 266.8673923959826 419.20952588688556 239.7122342189425C525.3063914170641 212.5570760419023 619.3002743928353 100.0358836984376 663.1629713801229 132.81622362557374C707.0256683674105 165.59656355270988 627.7151896463407 285.9610188187689 629.7504714258666 397.0578658691959C631.7857532053926 508.15471291962285 715.5413300168312 630.4281015323245 672.9323239218467 666.0810894676238 "></path><path d="M623.7044955317957 397.13534506198835C625.686217264492 505.3085908742462 707.237699949314 624.3642587339821 665.7499834884078 659.0790101446681C624.2622670275017 693.7937615553542 528.7674312939146 586.4051623176147 424.5634565194471 563.7661518332814C320.3594817449796 541.127141348948 220.61027593819506 612.2876113992584 165.570904570964 550.4117598198678C110.53153320373298 488.5359082404774 107.63839132751986 330.6123500628372 160.37447395673752 266.7620642522078C213.11055658595512 202.91177844157835 315.39925843814035 270.37093668017553 418.7041011912089 243.93038792884693C522.0089439442775 217.48983917751838 613.5293036838442 107.92973084309216 656.2377191714663 139.84743024583003C698.9461346590884 171.76512964856784 621.7227737990995 288.9620992497305 623.7044955317957 397.13534506198835C625.686217264492 505.3085908742462 707.237699949314 624.3642587339821 665.7499834884078 659.0790101446681 "></path><path d="M617.658336532256 397.21273270204654C619.5864982181228 502.46237727613527 698.9338867763278 618.3003243829053 658.5674599495003 652.0768392689783C618.2010331226727 685.8533541550513 525.2871388953988 581.3671494913046 423.89948776348433 559.3400041551965C322.5118366315701 537.3128588190884 225.45855530605002 606.550072922093 171.9067345163117 546.346541655659C118.35491372657339 486.1430103892251 115.53996487404174 332.4876564866562 166.85074797273995 270.3630540763141C218.16153107143822 208.23845166597198 317.6856734141048 273.87438941163407 418.1984933900635 248.14845008601708C518.7113133660221 222.4225107604001 607.7581498693843 115.8234864350124 649.312283857341 146.87854531335194C690.8664178452976 177.93360419169142 615.7301748463894 291.9630881279578 617.658336532256 397.21273270204654C619.5864982181228 502.46237727613527 698.9338867763278 618.3003243829053 658.5674599495003 652.0768392689783 "></path><path d="M611.6123301206071 397.29019663605004C613.486931759644 499.61623997196966 690.6302261912323 612.2364663257738 651.3850889984833 645.0747446872336C612.1399518057342 677.9130230486935 521.8069990847735 576.3292129589397 423.2356715954123 554.9139327710568C324.6643441060511 533.4986525831739 230.3069872617956 600.812610738873 178.24271704954998 542.2813997853955C126.17844683730442 483.75018883191797 123.4416910084542 334.3630392044205 173.32717457663307 273.9641201943657C223.21265814481188 213.5652011843108 319.9722409779599 277.3779184370379 417.6930381768086 252.3665885371325C515.4138353756574 227.35525863722705 601.987148642815 123.71731832087795 642.3870011311062 153.90973667481916C682.7868536193974 184.1021550287603 609.73772848157 294.9641533001304 611.6123301206071 397.29019663605004C613.486931759644 499.61623997196966 690.6302261912323 612.2364663257738 651.3850889984833 645.0747446872336 "></path><path d="M605.5662779325908 397.3675995348973C607.3873195247982 496.7700416326477 682.3265198297697 606.1725472334861 644.2026722710991 638.0725890703327C606.0788247124287 669.9726309071795 518.3268134977811 571.2912153914187 422.57180965097314 550.487800351761C326.81680580416514 529.6843853121034 235.15537344117394 595.0750875204967 184.57865380642113 538.2161968799758C134.00193417166827 481.35730623945483 131.34337136649947 336.23836088702865 179.80355540415894 277.5651252772611C228.26373944181842 218.8918896674935 322.25876276544795 280.88138642728546 417.18753718718665 256.58466595309164C512.1163116089253 232.28794547889783 596.2161016398786 131.61108917158725 635.4616726285043 160.94086700113013C674.7072436171301 190.27064483067295 603.7452363403834 297.9651574371468 605.5662779325908 397.3675995348973C607.3873195247982 496.7700416326477 682.3265198297697 606.1725472334861 644.2026722710991 638.0725890703327 "></path><path d="M599.5202104857856 397.4449871749555C601.2876920311633 493.92382803453677 674.022798209518 600.1086128824093 637.020240284926 631.0704181946428C600.017682360334 662.0322235068763 514.8466126519996 566.2532025651087 421.90793244774477 546.0616526736762C328.96925224349 525.8701027822437 240.00374436176327 589.3375490433314 190.91457530450316 534.1509787157669C141.82540624724305 478.9644083882024 139.24503646575567 338.11366731084763 186.27992097289575 281.1661151013673C233.31480548003583 224.21856289188702 324.54526929414686 284.38483915874394 416.6820209387756 260.80272811026174C508.8187725834043 237.22061706177948 590.4450393781531 139.5048447635075 628.5363288671133 167.97198206865204C666.6276183560736 196.43911937379653 597.7527289404077 300.9661463153741 599.5202104857856 397.4449871749555C601.2876920311633 493.92382803453677 674.022798209518 600.1086128824093 637.020240284926 631.0704181946428 "></path><path d="M593.4741430389802 397.5223900738026C595.1880645375284 491.0776296952148 665.7190765892663 594.0446937901215 629.8378082987529 624.068262577742C593.9565400082394 654.0918313653624 511.36641180621814 561.2152049975875 421.2440552445165 541.6355202543804C331.1216986828149 522.0558355111732 244.8521152823526 583.6000258249551 197.2504968025852 530.0857758103471C149.64887832281784 476.57152579573915 147.14670156501188 339.9889889934557 192.75628654163256 284.7671201842627C238.36587151825324 229.5452513750697 326.83177582284577 287.88830714899154 416.1765046903646 265.0208055262209C505.5212335578834 242.15330390345025 584.6739771164275 147.39861561421674 621.6109851057223 175.003112394963C658.5479930950171 202.60760917570923 591.7602215404321 303.96715045239046 593.4741430389802 397.5223900738026C595.1880645375284 491.0776296952148 665.7190765892663 594.0446937901215 629.8378082987529 624.068262577742 "></path><path d="M587.428090850964 397.5999150429624C589.0884523026825 488.23155342620544 657.4153702278036 587.9808967681463 622.6553915713687 617.0662290311536C587.8954129149338 646.1515612941608 507.8862262192258 556.1773295003791 420.5801933000772 537.2095099053971C333.2741603809288 518.2416903104152 249.700501461731 577.8626246768913 203.58643355945634 526.0206949752398C157.47236565718168 474.1787652735884 155.0483819230572 341.8644327463762 199.23266736915843 288.36824733747056C243.41695281525972 234.8720619285648 329.11829761033374 291.39189720955164 415.67100370074263 269.23900501249256C502.22370979115135 247.08611281543347 578.902930113491 155.29250853523854 614.6856566031204 182.03436479158648C650.4683830927498 208.77622104793437 585.7677293992455 306.9682766597193 587.428090850964 397.5999150429624C589.0884523026825 488.23155342620544 657.4153702278036 587.9808967681463 622.6553915713687 617.0662290311536 "></path><path d="M581.3820081453697 397.67727216544245C582.9888095502586 485.3853093105163 649.1116333487628 581.9169318994914 615.4729443264064 610.0640276378856C581.8342553040501 638.2111233762796 504.40601011465515 551.1392861564908 419.9163008380599 532.7833317097341C335.4265915614646 514.4273772629773 254.5488571235312 572.1250556821478 209.9223397987493 521.9554462934528C165.2958224739674 471.78583690475784 162.95003176352435 343.7397086526172 205.70901767910624 291.9692066439987C248.46800359468807 240.1987046353803 331.4047888802436 294.89531942343206 415.1654721935424 273.4570366520845C498.9261555068414 252.01875388073705 573.1318525929764 163.18623360958065 607.7602975829404 189.0654493415302C642.3887425729042 214.94466507347983 579.7752067404808 309.9692350203685 581.3820081453697 397.67727216544245C582.9888095502586 485.3853093105163 649.1116333487628 581.9169318994914 615.4729443264064 610.0640276378856 "></path><path d="M575.3359101809863 397.7547208406569C576.8891515390455 482.5391567475617 640.8078812109329 575.8530585835708 608.2904818226552 603.0619177973518C575.7730824343773 630.2707770111329 500.92577875129564 546.1013343653369 419.2523931172535 528.3572450668054C337.57900748321134 510.6131557682738 259.3971975265424 566.3875782401387 216.25823077925327 517.8902891644002C173.11926403196406 469.3930000886618 170.85166634520243 345.61507611159243 212.18535273026492 295.57025750326125C253.51903911532742 245.52543889493006 333.6912648913644 298.3988331900468 414.6599254275533 277.67515984441087C495.62858596374224 256.95148649877495 567.3607598136728 171.08005023665714 600.8349233039712 196.09662544420837C634.3090867942697 221.11320065175966 573.782668822927 312.97028493375205 575.3359101809863 397.7547208406569C576.8891515390455 482.5391567475617 640.8078812109329 575.8530585835708 608.2904818226552 603.0619177973518 "></path><path d="M569.2898732517591 397.83212373950414C570.7895545629888 479.69295840823975 632.5041901082593 569.7891394912831 601.1080803540601 596.0597621804509C569.7119705998609 622.3303848696189 497.44560842309227 541.063336797816 418.5885464316033 523.9311126475096C339.73148444011434 506.7988884972033 264.24559896470987 560.6500550217625 222.59418279491342 513.8250862589805C180.94276662511697 467.0001174961985 178.75336196203676 347.4903977942005 218.66174881657986 299.1712625861566C258.57013567112296 250.85212737811275 335.9778019376414 301.9023011802944 414.1544396967204 281.89323726037003C492.33107745579935 261.8841733404457 561.5897280695254 178.97382108736645 593.9096100601585 203.12775577051934C626.2294920507914 227.2816904536723 567.7901919405294 315.9712890707684 569.2898732517591 397.83212373950414C570.7895545629888 479.69295840823975 632.5041901082593 569.7891394912831 601.1080803540601 596.0597621804509 "></path><path d="M563.2437752873757 397.9095571559294C564.6898965517756 476.8467905864959 624.2004379704294 563.7252509165735 593.9256178503088 589.0576370811282C563.6507977301881 614.3900232456829 493.96537705973265 536.0253697478729 417.9246387107969 519.5050107457919C341.8839003618611 502.98465174371086 269.0939393677211 554.9125623209643 228.93007377541738 509.7599138711388C188.76620818311363 464.6072654213133 186.6549965437149 349.3657499943867 225.13808386773854 302.7722981866301C263.62117119176224 256.1788463788735 338.26427794876224 305.40579968812006 413.6488929307312 286.1113451939073C489.0335079127002 266.81689069969457 555.8186352902218 186.86762245565382 586.9842357811893 210.15891661440844C618.1498362721568 233.45021077316312 561.7976540229756 318.9723237253629 563.2437752873757 397.9095571559294C564.6898965517756 476.8467905864959 624.2004379704294 563.7252509165735 593.9256178503088 589.0576370811282 "></path><path d="M557.1977383581484 397.9869753135657C558.5902995757189 474.0006075059631 615.8967468677558 557.6613470830748 586.7432163817138 582.0554967230164C557.5896858956717 606.449646362958 490.4852067315293 530.987387439141 417.26079202514666 515.0788935852852C344.0363773187641 499.17039973142926 273.94234080588853 549.1750543613771 235.26602579107754 505.69472622450803C196.58971077626654 462.2143980876391 194.55669216054923 351.2410869357838 231.61447995405354 306.3733185283145C268.6722677475578 261.5055501208452 340.5508149950392 308.9092829371567 413.1434071998983 290.32943786865553C485.7359994047573 271.7495928001544 550.0476035460745 194.76140856515218 580.0589225373765 217.19006219950847C610.0702415286785 239.61871583386483 555.8051771405782 321.97334312116834 557.1977383581484 397.9869753135657C558.5902995757189 474.0006075059631 615.8967468677558 557.6613470830748 586.7432163817138 582.0554967230164 "></path><path d="M551.1516709113432 398.064378212413C552.4906720820838 471.15440916664124 607.5930252475041 551.5974279907871 579.5607843955405 575.0533411061156C551.5285435435769 598.509254221444 487.0050058857478 525.94938987162 416.5969148219184 510.6527611659893C346.18882375808903 495.3561324603587 278.79071172647787 543.4375311430008 241.60194728915957 501.6295233190883C204.41318285184133 459.82151549517584 202.45835725980544 353.1164086183919 238.09084552279035 309.97432361120985C273.72333378577525 266.83223860402785 342.8373215237382 312.4127509274043 412.6378909514872 294.54751528461475C482.4384603792363 276.6822796418251 544.2765412843489 202.65517941586148 573.1335787759855 224.22119252581945C601.990616267622 245.78720563577747 549.8126697406025 324.9743472581847 551.1516709113432 398.064378212413C552.4906720820838 471.15440916664124 607.5930252475041 551.5974279907871 579.5607843955405 575.0533411061156 "></path><path d="M545.1055729469597 398.1418268876274C546.3910140708708 468.30825660368646 599.2892731096742 545.5335546748665 572.3783218917893 568.0512312655819C545.4673706739042 590.5689078562971 483.52477452238827 520.911438080466 415.933007101112 506.22667452306064C348.3412396798357 491.54191096565523 283.6390521294891 537.7000537009917 247.93783826966353 497.5643661900357C212.236624409838 457.42867867907967 210.35999184148352 354.99177607736715 244.56718057394903 313.5753744704724C278.77436930641454 272.1589728635777 345.1237975348589 315.91626469401905 412.132344185498 298.76563847694104C479.14089083613715 281.6150122598631 538.5054485050453 210.54899604293797 566.2082044970164 231.2523686284976C593.9109604889875 251.9557412140573 543.8201318230488 327.97539717156826 545.1055729469597 398.1418268876274C546.3910140708708 468.30825660368646 599.2892731096742 545.5335546748665 572.3783218917893 568.0512312655819 "></path><path d="M539.0595360177326 398.2192603040527C540.291417094814 465.4620887819427 590.9855820070006 539.4696661001569 565.1959204231941 561.0491061662591C539.4062588393876 582.6285462323613 480.0446041941849 515.8734710305232 415.2691604154618 501.800572621343C350.4937166367388 487.7276742121628 288.48745356765653 531.9625610001935 254.27379028532368 493.499193802194C220.0601270029909 455.03582660419454 218.2616874583179 356.8671282775534 251.04357666026397 317.1764100709459C283.8254658622101 277.48569186433843 347.410334581136 319.4197632018448 411.6268584546651 302.9837464104784C475.84338232819425 286.5477296191119 532.7344167608978 218.4427974112254 559.2828912532035 238.2835294723867C585.8313657455092 258.12426153354807 537.8276549406512 330.97643182616275 539.0595360177326 398.2192603040527C540.291417094814 465.4620887819427 590.9855820070006 539.4696661001569 565.1959204231941 561.0491061662591 "></path><path d="M533.0134685709273 398.29667846168905C534.1917896011792 462.61590570140993 582.6818603867489 533.4057622666583 558.0134884370209 554.0469658081473C533.345116487293 574.6881693496364 476.5644033484034 510.8354887217912 414.60528321223353 497.3744554608363C352.6461630760636 483.9134221998813 293.33582448824586 526.2250530406063 260.60971178340577 489.43400615556334C227.88359907856568 452.64295927052035 226.16335255757411 358.7424652189505 257.51994222900083 320.77743041263034C288.8765319004275 282.81239560631013 349.69684110983485 322.9232464508814 411.1213422062541 307.2018390852266C472.54584330267323 291.48043171957175 526.9633544991723 226.3365835207237 552.3575474918125 245.31467505748674C577.7517404844527 264.29276659424977 531.8351475406755 333.9774512219682 533.0134685709273 398.29667846168905C534.1917896011792 462.61590570140993 582.6818603867489 533.4057622666583 558.0134884370209 554.0469658081473 "></path><path d="M526.967401124122 398.37408136053625C528.0921621075443 459.76970736208796 574.3781387664973 527.3418431743705 550.8310564508478 547.0448101912464C527.2839741351984 566.7477772081223 473.0842025026219 505.7974911542701 413.9414060090052 492.94832304154033C354.7986095153885 480.09915492881066 298.18419540883514 520.48752982223 266.9456332814878 485.3688032501436C235.70707115414046 450.2500766780571 234.06501765683032 360.6177869015586 263.99630779773764 324.37843549552565C293.92759793864496 288.13908408949277 351.9833476385338 326.426714441129 410.6158259578431 311.41991650118575C469.2483042771522 296.41311856124247 521.1922922374467 234.230354371433 545.4322037304215 252.3458053837977C569.6721152233963 270.4612563961624 525.8426401406998 336.97845535898455 526.967401124122 398.37408136053625C528.0921621075443 459.76970736208796 574.3781387664973 527.3418431743705 550.8310564508478 547.0448101912464 "></path><path d="M520.9213336773167 398.45154529453976C521.9925346139094 456.92357005792235 566.0744171462454 521.277985117239 543.6486244646746 540.0427156095018C521.2228317831037 558.8074461017645 469.6040016568404 500.7595546219053 413.2775288057769 488.52225165740083C356.9510559547134 476.28494869289625 303.03256632942447 514.75006763901 273.2815547795699 481.30366137987994C243.53054322971525 447.85725512075 241.96668275608653 362.4931696193229 270.47267336647445 327.97950161357727C298.9786639768624 293.46583360783166 354.2698541672327 329.93024346653283 410.11030970943193 315.6380549523011C465.9507652516312 301.3458664380695 515.4212299757213 242.12418625729856 538.5068599690305 259.37699674526493C561.5924899623399 276.62980723323136 519.8501327407241 339.97952053115716 520.9213336773167 398.45154529453976C521.9925346139094 456.92357005792235 566.0744171462454 521.277985117239 543.6486244646746 540.0427156095018 "></path><path d="M514.8752662305114 398.5289634521761C515.8929071202745 454.07738697738955 557.7706955259937 515.2140812837404 536.4661924785014 533.04057525139C515.1616894310091 550.8670692190396 466.123800811059 495.7215723131734 412.61365160254866 484.096134496894C359.10350239403823 472.47069668061476 307.8809372500138 509.0125596794228 279.6174762776519 477.2384737332493C251.35401530529003 445.4643877870758 249.8683478553428 364.36850656072005 276.94903893521126 331.5805219552617C304.0297300150798 298.79253734980335 356.55636069593163 333.43372671556943 409.6047934610209 319.8561476270494C462.6532262261102 306.27856853852927 509.65016771399576 250.01797236679693 531.5815162076397 266.40814233036497C553.5128647012834 282.79831229393307 513.8576253407484 342.9805399269626 514.8752662305114 398.5289634521761C515.8929071202745 454.07738697738955 557.7706955259937 515.2140812837404 536.4661924785014 533.04057525139 "></path><path d="M508.8292140424952 398.60636635102327C509.7932948854286 451.2311886380676 549.466989164531 509.15016219145264 529.2837757511173 526.0384196344892C509.10056233770354 542.9266770775257 462.6436152240666 490.6835747456523 411.94978965810935 479.67000207759827C361.2559640921522 468.6564294095442 312.7293234293922 503.2750364610465 285.953413034523 473.1732708278296C259.1775026396539 443.07150519461254 257.77002821338806 366.2438282433281 283.4254197627372 335.181527038157C309.0808113120863 304.119225832986 358.8428824834196 336.93719470581703 409.09929247139894 324.07422504300854C459.3557024593782 311.21125538020004 503.8791207110594 257.9117432175062 524.6561877050376 273.43927265667594C545.4332546990161 288.9668020958457 507.8651331995619 345.9815440639789 508.8292140424952 398.60636635102327C509.7932948854286 451.2311886380676 549.466989164531 509.15016219145264 529.2837757511173 526.0384196344892 "></path><path d="M502.78313133690085 398.68379976744865C503.69365213300455 448.38502081632384 541.1632522854903 503.08627361674303 522.101328506155 519.0362945351663C503.03940472681984 534.9863154535897 459.16339911949603 485.6456076957094 411.28589719609204 475.2439001758805C363.40839527268804 464.8421926560517 317.57767909119246 497.53754376024835 292.28931927381603 469.1080984399879C267.0009594564396 440.6786531197274 265.6716780538552 368.1191804435143 289.90177007268494 338.7825626386305C314.1318620915147 309.44594483374675 361.12937375332945 340.4406932136427 408.5937609641988 328.2923329765458C456.05814817506814 316.1439727394489 498.1080431905448 265.8055445857936 517.7308286848577 280.47043350056504C537.3536141791706 295.1353224153365 501.87261054079715 348.9825787185734 502.78313133690085 398.68379976744865C503.69365213300455 448.38502081632384 541.1632522854903 503.08627361674303 522.101328506155 519.0362945351663 "></path><path d="M496.73706389009556 398.76120266629584C497.59402463936965 445.53882247700193 532.8595306652386 497.0223545244553 514.9188965199819 512.0341389182655C496.9782623747251 527.0459233120757 455.68319827371454 480.6076101281883 410.6220199928637 470.8177677565848C365.5608417120129 461.02792538498113 322.42605001178174 491.8000205418721 298.62524077189806 465.04289553456806C274.8244315320144 438.2857705272641 273.5733431531114 369.99450212612237 296.37813564142175 342.3835677215259C319.1829281297321 314.7726333169294 363.41588028202835 343.9441612038903 408.08824471578777 332.510410392505C452.7606091495472 321.07665958111966 492.33698092881923 273.6993154365029 510.80548492346657 287.501563826876C529.273988918114 301.3038122172491 495.8801031408216 351.98358285558976 496.73706389009556 398.76120266629584C497.59402463936965 445.53882247700193 532.8595306652386 497.0223545244553 514.9188965199819 512.0341389182655 "></path><path d="M490.69099644329026 398.8386360827212C491.49439714573475 442.69265465525814 524.5558090449869 490.9584659497457 507.73646453380866 505.0320138189428C490.91712002263057 519.1055616881398 452.20299742793304 475.56964307824546 409.9581427896354 466.39166585486703C367.7132881513378 457.2136886314886 327.2744209323711 486.0625278410739 304.96116226998015 460.9777231467265C282.64790360758917 435.8929184523789 281.4750082523676 371.8698543263086 302.85450121015856 345.9846033219994C324.2339941679495 320.09935231769015 365.70238681072726 347.447659711716 407.5827284673767 336.72851832604226C449.46307012402616 326.0093769403685 486.5659186670937 281.5931168047903 503.8801411620757 294.5327246707651C521.1943636570576 307.47233253673994 489.8875957408459 354.98461751018425 490.69099644329026 398.8386360827212C491.49439714573475 442.69265465525814 524.5558090449869 490.9584659497457 507.73646453380866 505.0320138189428 "></path><path d="M484.6449289964851 398.91605424035754C485.39476965209985 439.84647157472534 516.2520874247351 484.894562116247 500.55403254763553 498.0298734608309C484.85597767053594 511.1651848054149 448.7227965821516 470.53166076951345 409.2942655864071 461.9655486943602C369.86573459066267 453.3994366192071 332.1227918529604 480.3250198814867 311.2970837680622 456.9125355000957C290.47137568316396 433.50005111870473 289.3766733516239 373.7451912677057 309.3308667788954 349.58562366368375C329.2850602061669 325.42605605966185 367.98889333942617 350.95114296075263 407.07721221896566 340.9466110007905C446.16553109850514 330.94207904082833 480.79485640536814 289.4869029142887 496.9547974006847 301.56387025586514C513.1147383960011 313.64083759744165 483.8950883408702 357.9856369059897 484.6449289964851 398.91605424035754C485.39476965209985 439.84647157472534 516.2520874247351 484.894562116247 500.55403254763553 498.0298734608309 "></path><path d="M478.59886154967967 398.9935029155719C479.29514215846484 437.0003190117706 507.9483658044834 478.83068880032647 493.3716005614624 491.02776362029726C478.7948353184413 503.22483844026806 445.2425957363701 465.49370897835956 408.6303883831788 457.53946205143166C372.01818102998755 449.5852151245037 336.97116277354974 474.5875424394776 317.63300526614427 452.8473783710431C298.29484775873874 431.1072143026086 297.2783384508801 375.620558726681 315.80723234763224 353.1866745229463C334.3361262443844 330.75279031921167 370.2753998681251 354.4546567273674 406.57169597055463 345.16473419311683C442.8679920729841 335.87481165886624 475.0237941436427 297.3807195413652 490.0294536392937 308.5950463585433C505.0351131349447 319.8093731757215 477.9025809408945 360.98668681937323 478.59886154967967 398.9935029155719C479.29514215846484 437.0003190117706 507.9483658044834 478.83068880032647 493.3716005614624 491.02776362029726 "></path><path d="M472.5527941028744 399.07092107320824C473.19551466482994 434.15413593123776 499.64464418423165 472.7667849668278 486.18916857528916 484.0256232621855C472.7336929663466 495.28446155754307 441.76239489058867 460.45572666962755 407.96651117995054 453.11334489092485C374.1706274693124 445.77096311222215 341.81953369413907 468.8500344798904 323.9689267642263 448.7821907244124C306.1183198343135 428.71434696893436 305.1800035501363 377.4958956680781 322.28359791636905 356.78769486463074C339.3871922826018 336.07949406118337 372.561906396824 357.958139976404 406.06617972214354 349.38282686786505C439.5704530474631 340.80751375932607 469.25273188191716 305.2745056508635 483.1041098779027 315.62619194364333C496.9554878738883 325.9778782364232 471.9100735409189 363.98770621517866 472.5527941028744 399.07092107320824C473.19551466482994 434.15413593123776 499.64464418423165 472.7667849668278 486.18916857528916 484.0256232621855 "></path><path d="M466.5067419148582 399.14835448963356C467.0959024299841 431.307968109494 491.340937822769 466.7028963921182 479.006751847905 477.0234981628627C466.67256587304104 487.34409993360725 438.28220930359623 455.41775961968466 407.3026492355113 448.6872429892072C376.32308916742636 441.9567263587297 346.66791987351746 463.1125417790922 330.3048635210974 444.71701833657073C313.94180716867737 426.32149489404924 313.08168390818156 379.37124786826433 328.7599787438949 360.38873046510423C344.4382735796083 341.40621306194413 374.84842818431196 361.46163848422975 405.5606787325216 353.60093480140233C436.27292928073115 345.7402311185749 463.4816848789807 313.1683070191509 476.1787813753008 322.65735278753243C488.8758778716209 332.14639855591395 465.9175813997323 366.98874086977315 466.5067419148582 399.14835448963356C467.0959024299841 431.307968109494 491.340937822769 466.7028963921182 479.006751847905 477.0234981628627 "></path><path d="M460.4606744680529 399.2257726472699C460.9962749363492 428.4617850289612 483.03721620251724 460.6389925586195 471.82431986173185 470.0213578047509C460.6114235209464 479.40372305088226 434.80200845781474 450.37977731095265 406.638772032283 444.2611258287004C378.47553560675124 438.1424743464481 351.5162907941068 457.375033819505 336.6407850191795 440.65183068993997C321.76527924425216 423.928627560375 320.9833490074378 381.24658480966144 335.2363443126318 363.9897508067886C349.4893396178257 346.7329168039158 377.13493471301086 364.9651217332664 405.0551624841105 357.81902747615055C432.97539025521013 350.67293321903475 457.7106226172552 321.0620931286493 469.2534376139098 329.68849837263247C480.79625261056447 338.31490361661565 459.9250739997566 369.9897602655786 460.4606744680529 399.2257726472699C460.9962749363492 428.4617850289612 483.03721620251724 460.6389925586195 471.82431986173185 470.0213578047509 "></path><path d="M454.4146070212476 399.3031908049062C454.8966474427143 425.6156019484283 474.7334945822655 454.57508872512085 464.64188787555867 463.0192174466391C454.55028116885177 471.4633461681574 431.3218076120333 445.3417950022207 405.9748948290547 439.83500866819367C380.6279820460761 434.32822233416664 356.36466171469607 451.6375258599178 342.9767065172615 436.5866430433093C329.58875131982694 421.5357602267008 328.88501410669403 383.1219217510586 341.7127098813686 367.59077114847304C354.54040565604316 352.0596205458875 379.4214412417098 368.468604982303 404.54964623569947 362.0371201508988C429.6778512296891 355.6056353194945 451.9395603555297 328.95587923814765 462.3280938525188 336.7196439577325C472.71662734950803 344.48340867731736 453.93256659978096 372.990779661384 454.4146070212476 399.3031908049062C454.8966474427143 425.6156019484283 474.7334945822655 454.57508872512085 464.64188787555867 463.0192174466391 "></path><path d="M448.3685395744423 399.38060896254245C448.79701994907936 422.7694188678955 466.4297729620138 448.5111848916222 457.4594558893855 456.0170770885273C448.4891388167571 463.5229692854324 427.8416067662518 440.3038126934887 405.31101762582637 435.4088915076869C382.780428485401 430.5139703218851 361.2130326352854 445.90001790033057 349.3126280153436 432.52145539667856C337.4122233954017 419.14289289302656 336.78667920595024 384.9972586924557 348.1890754501054 371.19179149015747C359.5914716942606 357.3863242878592 381.70794777040874 371.9720882313397 404.04412998728844 366.25521282564705C426.38031220416815 360.53833741995436 446.16849809380415 336.849665347646 455.4027500911278 343.75078954283254C464.63700208845154 350.6519137380191 447.9400591998053 375.99179905718944 448.3685395744423 399.38060896254245C448.79701994907936 422.7694188678955 466.4297729620138 448.5111848916222 457.4594558893855 456.0170770885273 "></path><path d="M442.322456868848 399.45802712017877C442.6973771966554 419.92323578736267 458.12603608297303 442.4472810581235 450.27700864442323 449.01493673041546C442.42798120587344 455.58259240270746 424.3613906616813 435.2658303847567 404.64712516380905 430.9827743471801C384.9328596659368 426.69971830960355 366.06138829708567 440.16250994074335 355.64853425463656 428.45626775004786C345.23568021218745 416.75002555935237 344.6883290464174 386.8725956338529 354.66542576005315 374.7928118318419C364.6425224736889 362.7130280298309 383.9944390403186 375.47557148037635 403.5385984800883 370.47330550039527C423.08275791985807 365.47103952041414 440.39742057328954 344.7434514571443 448.4773910709478 350.78193512793257C456.55736156860604 356.8204187987208 441.94753654104056 378.99281845299487 442.322456868848 399.45802712017877C442.6973771966554 419.92323578736267 458.12603608297303 442.4472810581235 450.27700864442323 449.01493673041546 "></path><path d="M436.27638942204266 399.5354605366041C436.59774970302044 417.0770679656189 449.8223144627213 436.3833924834139 443.09457665825005 442.01281163109275C436.36683885377875 447.64223077877153 420.8811898158998 430.2278633348138 403.98324796058074 426.5566724454624C387.0853061052617 422.8854815561111 370.909759217675 434.4250172399452 361.9844557527186 424.3910953622062C353.05915228776223 414.3571734844672 352.58999414567364 388.74794783403905 361.14179132879 378.3938474323154C369.69358851190634 368.0397470305917 386.2809455690175 378.979069988202 403.03308223167727 374.69141343393255C419.78521889433705 370.40375687966304 434.62635831156405 352.63725282543174 441.5520473095568 357.81309597182167C448.4777363075496 362.9889391182116 435.9550291410649 381.9938531075893 436.27638942204266 399.5354605366041C436.59774970302044 417.0770679656189 449.8223144627213 436.3833924834139 443.09457665825005 442.01281163109275 "></path><path d="M430.2303219752374 399.6128786942404C430.49812220938554 414.230884885086 441.51859284246956 430.31948864991523 435.91214467207686 435.0106712729809C430.3056965016841 439.7018538960466 417.4009889701183 425.1898810260818 403.31937075735243 422.1305552849557C389.23775254458656 419.07122954382953 375.75813013826433 428.687509280358 368.3203772508007 420.32590771557545C360.882624363337 411.964306150793 360.49165924492985 390.6232847754362 367.61815689752683 381.9948677739998C374.7446545501238 373.3664507725634 388.5674520977164 382.4825532372387 402.5275659832662 378.9095061086808C416.48767986881603 375.3364589801228 428.85529604983856 360.5310389349301 434.62670354816584 364.8442415569217C440.39811104649317 369.1574441789133 429.96252174108923 384.99487250339473 430.2303219752374 399.6128786942404C430.49812220938554 414.230884885086 441.51859284246956 430.31948864991523 435.91214467207686 435.0106712729809 "></path><path d="M424.1842697872212 399.6902968518767C424.3985099745397 411.38470180455323 433.2148864810069 424.25558481641656 428.72972794469274 428.0085309148691C424.24456940837854 431.76147701332167 413.92080338312593 420.1518987173498 402.6555088129132 417.7044381244489C391.3902142427005 415.256977531548 380.60651631764273 422.95000132077075 374.65631400767177 416.26072006894475C368.70611169770086 409.57143881711875 368.3933396029751 392.4986217168333 374.0945377250527 385.5958881156842C379.7957358471303 378.6931545145351 390.85397388520437 385.98603648627534 402.0220649936442 383.127598783429C413.1901561020841 380.26916108058265 423.0842490469021 368.4248250444285 427.7013750455639 371.87538714202174C432.3185010442258 375.325949239615 423.97002959990266 387.99589189920016 424.1842697872212 399.6902968518767C424.3985099745397 411.38470180455323 433.2148864810069 424.25558481641656 428.72972794469274 428.0085309148691 "></path><path d="M418.1382023404159 399.76773026830205C418.29888248090475 408.53853398280944 424.9111648607552 418.19169624170695 421.54729595851956 421.0064058155464C418.1834270562839 423.8211153893858 410.44060253734443 415.11393166740686 401.9916316096849 413.27833622273124C393.54266068202537 411.4427407780555 385.454887238232 417.2125086199726 380.99223550575385 412.1955476811031C376.52958377327565 407.1785867422336 376.2950047022313 394.37397391701955 380.5709032937895 389.1969237161577C384.8468018853477 384.01987351529584 393.1404804139033 389.489534994101 401.51654874523314 387.3457067169663C409.89261707656306 385.2018784398315 417.3131867851765 376.3186264127159 420.7760312841729 378.90654798591083C424.2388757831693 381.4944695591058 417.97752219992697 390.99692655379465 418.1382023404159 399.76773026830205C418.29888248090475 408.53853398280944 424.9111648607552 418.19169624170695 421.54729595851956 421.0064058155464 "></path><path d="M412.0921348936106 399.84514842593836C412.19925498726985 405.6923509022766 416.60744324050347 412.1277924082083 414.36486397234637 414.00426545743454C412.12228470418927 415.8807385066608 406.96040169156294 410.0759493586749 401.3277544064566 408.85221906222444C395.69510712135025 407.628488765774 390.30325815882134 411.4750006603854 387.3281570038359 408.13036003447235C384.35305584885043 404.7857194085594 384.1966698014876 396.24931085841666 387.0472688625264 392.7979440578421C389.8978679235652 389.34657725726754 395.4269869426022 392.99301824313767 401.0110324968221 391.5637993917145C406.59507805104204 390.1345805402913 411.54212452345104 384.2124125222142 413.850687522782 385.93769357101087C416.15925052211287 387.6629746198075 411.98501479995133 393.9979459496001 412.0921348936106 399.84514842593836C412.19925498726985 405.6923509022766 416.60744324050347 412.1277924082083 414.36486397234637 414.00426545743454 "></path><path d="M406.0460674468053 399.9225818423637C406.0996274936349 402.84618308053285 408.30372162025174 406.06390383349867 407.1824319861732 407.00214035811183C406.06114235209463 407.94037688272493 403.4802008457815 405.037982308732 400.6638772032283 404.42611716050675C397.8475535606751 403.81425201228154 395.15162907941067 405.7375079595872 393.66407850191797 404.0651876466307C392.1765279244252 402.39286733367425 392.0983349007438 398.1246630586029 393.5236344312632 396.39897965831557C394.9489339617826 394.6732962580283 397.7134934713011 396.49651675096334 400.505516248411 395.7819073252518C403.297539025521 395.06729789954016 405.77106226172555 392.10621389050164 406.925343761391 392.96885441489997C408.07962526105644 393.8314949392983 405.99250739997564 396.99898060419457 406.0460674468053 399.9225818423637C406.0996274936349 402.84618308053285 408.30372162025174 406.06390383349867 407.1824319861732 407.00214035811183 "></path></g></svg>