<svg xmlns="http://www.w3.org/2000/svg" version="1.1" xmlns:xlink="http://www.w3.org/1999/xlink" xmlns:svgjs="http://svgjs.dev/svgjs" viewBox="0 0 800 800" opacity="1"><defs><linearGradient x1="50%" y1="0%" x2="50%" y2="100%" id="uundulate-grad"><stop stop-color="hsl(180, 12%, 8%)" stop-opacity="1" offset="45%"></stop><stop stop-color="hsl(0, 0%, 36%)" stop-opacity="1" offset="100%"></stop></linearGradient></defs><g stroke-width="1" stroke="url(#uundulate-grad)" fill="none"><path d="M649.3535500385537 357.8247583693883C673.800926891546 499.7128991011091 731.0781473473148 686.7796109997474 678.4582268883265 735.9082548820481C625.8383064293383 785.0368987643487 517.1734923133108 645.9482675408974 396.7779318354094 593.6422490044324C276.38237135750796 541.3362304679674 111.70399188327923 549.5197629048355 100.55953659440019 484.8393659070168C89.4150813055212 420.15896890919817 247.33636282388107 372.75846561015874 343.28454644879014 283.1763434149027C439.23273007369914 193.59422121964673 497.34644224609565 39.29342625427063 561.1108179939629 54.845179369788355C624.8751937418301 70.39693248530602 624.9061731855614 215.93661763766772 649.3535500385537 357.8247583693883C673.800926891546 499.7128991011091 731.0781473473148 686.7796109997474 678.4582268883265 735.9082548820481 "></path><path d="M643.1196815329513 358.87917221655016C666.9558739646187 497.2201094299778 722.8011639089932 679.6101535311502 671.4967414614797 727.5105813163934C620.1923190139662 775.4110091016366 514.2441252508393 639.7995936587714 396.85845378488546 588.8012255857182C279.47278231893165 537.8028575126648 118.91136233155856 545.7818016386111 108.04551842490156 482.71841456573793C97.1796745182445 419.65502749286475 251.1529239986454 373.43953677630134 344.70240303293167 286.0969676359266C438.25188206721805 198.75439849555204 494.9127514353045 48.311123404310365 557.0830177894751 63.47408269194011C619.2532841436457 78.63704197956986 619.2834891012837 220.5382350031225 643.1196815329513 358.87917221655016C666.9558739646187 497.2201094299778 722.8011639089932 679.6101535311502 671.4967414614797 727.5105813163934 "></path><path d="M636.885874062505 359.9335860637119C660.1108820728477 494.72731975884653 714.524241505828 672.440696062553 664.5353170697891 719.1129077507387C614.5463926337503 765.7851194389243 511.31481922352407 633.6509197766454 396.93903676951777 583.9602021670038C282.56325431551153 534.269484557362 126.11879381499415 542.0438403723867 115.53156129055913 480.59746322445903C104.94432876612404 419.1510860765313 254.96954620856593 374.1206079424438 346.12032065222957 289.0175918569505C437.2710950958931 203.91457577145735 492.47912165966966 57.3288205543501 553.0552786201436 72.10298601409187C613.6314355806176 86.87715147383369 613.6608660521623 225.1398523685773 636.885874062505 359.9335860637119C660.1108820728477 494.72731975884653 714.524241505828 672.440696062553 664.5353170697891 719.1129077507387 "></path><path d="M630.6520360744806 360.9879388757174C653.2658596634985 492.234469052559 706.2472885850846 665.2711775587996 657.5738621605204 710.7151731499279C608.9004357359563 756.159168741056 508.38548267863075 627.5021848593634 397.0195892365721 579.1191177131333C285.6536957945133 530.7360505669031 133.3261947808516 538.3058180710061 123.01757363863857 478.4764508480239C112.70895249642547 418.64708362504155 258.78613790090833 374.80161807343006 347.5382077539492 291.93815504281827C436.29027760699 209.07469201220647 490.0454613664567 66.34645666923353 549.027508933234 80.73182830108743C608.0095565000112 95.11719993294128 608.0382124854627 229.74140869887583 630.6520360744806 360.9879388757174C653.2658596634985 492.234469052559 706.2472885850846 665.2711775587996 657.5738621605204 710.7151731499279 "></path><path d="M624.4181675688781 362.0423527228793C646.4208067365711 489.74167938142784 697.970305146763 658.1017200902024 650.6123767336736 702.317499584273C603.2544483205842 746.5332790783436 505.4561156161593 621.3535109772374 397.100111186048 574.2780942944189C288.7441067559369 527.2026776116004 140.533565229131 534.5678568047817 130.50355546913988 476.355499506745C120.47354570914877 418.143142208708 262.60269907567266 375.48268923957266 348.95606433809075 294.85877926384217C435.3094296005089 214.23486928811172 487.61177055566566 75.36415381927327 544.9997087287463 89.36073162323919C602.3876469018268 103.35730942720511 602.4155284011849 234.34302606433062 624.4181675688781 362.0423527228793C646.4208067365711 489.74167938142784 697.970305146763 658.1017200902024 650.6123767336736 702.317499584273 "></path><path d="M618.1842990632756 363.09667501730655C639.5757538096439 487.2487981575622 689.6933217084415 650.9321710688708 643.6508913068268 693.919734465884C597.608460905212 736.907297862897 502.52674855368787 615.204745542377 397.1806331355242 569.4369793229702C291.83451771736054 523.6692131035634 147.74093567741033 530.829803985823 137.9895372996412 474.2344566127315C128.23813892187206 417.6391092396402 266.419260250437 376.1636688529808 350.3739209222324 297.7793119321317C434.3285815940278 219.39495501128266 485.1780797448746 84.38175941657863 540.9719085242584 97.98954339265657C596.7657373036423 111.59732736873457 596.7928443169073 238.94455187705103 618.1842990632756 363.09667501730655C639.5757538096439 487.2487981575622 689.6933217084415 650.9321710688708 643.6508913068268 693.919734465884 "></path><path d="M611.9504915928293 364.1510583468903C632.7307619178728 484.7559779688529 681.4163993052762 643.7626830826955 636.6894669151361 685.5220303826511C591.9625345249962 727.2813776826066 499.5974425263727 609.0560411426729 397.26121612015663 564.5959253866777C294.9249897139404 520.1358096306825 154.94836716084592 527.0918122020204 145.47558016529877 472.11347475387447C136.0027931697516 417.1351373057287 270.2358824603575 376.84470950154514 351.7918385415302 300.6999056355776C433.34779462270285 224.5551017696099 482.7444499692399 93.39942604904019 536.944169354927 106.61841619723026C591.1438887406142 119.83740634542028 591.1702212677858 243.5461387249277 611.9504915928293 364.1510583468903C632.7307619178728 484.7559779688529 681.4163993052762 643.7626830826955 636.6894669151361 685.5220303826511 "></path><path d="M605.7166383460159 365.2055027116302C625.8857242497345 482.26321881529975 673.1394311257437 636.5932561316764 629.7279967470784 677.1243873345745C586.3165623684131 717.6555185374725 496.6680907226903 602.9073977781252 397.34175332842165 559.7549324855415C298.0154159341531 516.6024671929579 162.15575286791432 523.3538814533741 152.96157725458914 469.9925539301737C143.76740164126397 416.63122640697316 274.0524588939109 377.52581118526575 353.2097103844608 303.6205603741796C432.3669618750107 229.71530956309329 480.3107744172378 102.41715371665805 532.9163844092284 115.24735003696014C585.5219944012188 128.07754635726224 585.5475524422973 248.1477866079606 605.7166383460159 365.2055027116302C625.8857242497345 482.26321881529975 673.1394311257437 636.5932561316764 629.7279967470784 677.1243873345745 "></path><path d="M599.4828308755696 366.2598860412138C619.0407323579634 479.77039862659035 664.8625087225785 629.4237681455011 622.7665723553878 668.7266832513416C580.6706359881972 708.0295983571821 493.7387846953751 596.758693378421 397.4223363130541 554.913878549249C301.105887930733 513.0690637200771 169.36318435134996 519.6158896695715 160.4476201202467 467.87157207131656C151.53205588914352 416.1272544730616 277.86908110383143 378.2068518338301 354.6276280037587 306.5411540776254C431.38617490368586 234.87545632142053 477.8771446416031 111.43482034911966 528.8886452398968 123.87622284153377C579.9001458381906 136.31762533394794 579.9249293931757 252.74937345583726 599.4828308755696 366.2598860412138C619.0407323579634 479.77039862659035 664.8625087225785 629.4237681455011 622.7665723553878 668.7266832513416 "></path><path d="M593.2489776287562 367.3142388532194C612.1956946898251 477.2775479203028 656.5855405430459 622.2542496417477 615.80510218733 660.3289486505307C575.0246638316141 698.4036476593137 490.8094328916927 590.6099584611388 397.5028735213192 550.0727940953785C304.1963141509457 509.5356297296182 176.57057005841835 515.877867368191 167.93361720953715 465.75055969488153C159.29666436065588 415.62325202157194 281.68565753738477 378.88786196481647 356.04549984668927 309.46171726349303C430.4053421559938 240.0355725621696 475.44346908960097 120.45245646400309 524.8608602941981 132.50506512852934C574.2782514987953 144.55767379305553 574.3022605676871 257.35092978613585 593.2489776287562 367.3142388532194C612.1956946898251 477.2775479203028 656.5855405430459 622.2542496417477 615.80510218733 660.3289486505307 "></path><path d="M587.0151548995209 368.3685611476467C605.350687539265 474.78466669643717 648.3086028810916 615.0847006204161 608.8436625368504 651.9311835321416C569.3787221926092 688.7776664438671 487.8801116055886 584.4611930262786 397.58344124716245 545.2316791239298C307.2867708887365 506.0021652215811 183.77798628306488 512.1398145492321 175.41964481640565 463.62951680086815C167.06130334974637 415.11921905250415 285.5022644885163 379.5688415782246 357.4634022071981 312.38224993178255C429.4245399258798 245.19565828534053 473.0098240551772 129.47006206130845 520.8331058660776 141.13387689794672C568.656387676978 152.797691734585 568.6796222597766 261.95245559885626 587.0151548995209 368.3685611476467C605.350687539265 474.78466669643717 648.3086028810916 615.0847006204161 608.8436625368504 651.9311835321416 "></path><path d="M580.7813169114963 369.42292921844137C598.5056651299158 472.2918312489388 640.0316499603482 607.9151973754517 601.8822076275817 643.5334641901197C563.7327652948152 679.1517310047876 484.95077506069515 578.3124733677854 397.66399371421676 540.3906099288483C310.37721236773825 502.46874648991115 190.98538724892234 508.4018075066406 182.9056571644851 461.50851968322195C174.8259270800478 414.61523185980354 289.3188561808587 380.2498669679999 358.88128930891776 315.30282837643927C428.4437224369768 250.35578978487865 470.57616376196415 138.487713434981 516.805336179168 149.7627344437313C563.0345085963718 161.03775545248163 563.056968693077 266.55402718794386 580.7813169114963 369.42292921844137C598.5056651299158 472.2918312489388 640.0316499603482 607.9151973754517 601.8822076275817 643.5334641901197 "></path><path d="M574.5474636646829 370.47729728923593C591.6606274617776 469.79899580144036 631.7546817808156 600.7456941304873 594.9207374595239 635.1357448480977C558.0867931382321 669.5257955657082 482.02142325701277 572.1637537092922 397.7445309224819 535.5495407337668C313.46763858795094 498.9353277582413 198.19277295599073 504.663800464049 190.39165425377547 459.38752256557586C182.59053555156015 414.1112446671027 293.1354326144121 380.9308923577753 360.2991611518484 318.223406821096C427.4628896892848 255.51592128441678 468.14248820996227 147.5053648086535 512.7775512334692 158.39159198951592C557.4126142569764 169.27781917037828 557.4342998675884 271.15559877703146 574.5474636646829 370.47729728923593C591.6606274617776 469.79899580144036 631.7546817808156 600.7456941304873 594.9207374595239 635.1357448480977 "></path><path d="M568.3136409354477 371.531787430343C584.8156203112173 467.3062824242545 623.4777441188614 593.5763129558354 587.9592978090443 626.7381475763884C552.4408514992272 659.8999821969413 479.0921019709085 566.0151561211117 397.82509864832514 530.7085936089977C316.55809532574176 495.4020310968839 205.4001891806373 500.92591549176996 197.87768186064397 457.2666475182423C190.35517454065064 413.6073795447146 296.95203956554354 381.6120398178631 361.7170635123572 321.14410733606525C426.48208745917077 260.6761748542674 465.7088431755383 156.52313825263855 508.74979680534875 167.020571605613C551.7907504351591 177.51800495858743 551.8116615596778 275.75729243643156 568.3136409354477 371.531787430343C584.8156203112173 467.3062824242545 623.4777441188614 593.5763129558354 587.9592978090443 626.7381475763884 "></path><path d="M562.0798029474233 372.5861860187157C577.9705979018681 464.81347749433417 615.2007911981179 586.4068402284491 580.9978428997756 618.3404587519447C546.7948946014332 650.27407727544 476.1627654260153 559.8664669801966 397.90565111537944 525.8675549314944C319.6485368047435 491.8686428827921 212.60759014649477 497.1879389667564 205.36369420872342 455.1456809181743C198.11979827095206 413.1034228695921 300.768631257886 382.2930957252165 363.13495061407684 324.0647162983001C425.5012699702677 265.83633687138365 463.27518288232545 165.54082014388922 504.7220271184391 175.64945966897568C546.1688713545528 185.7580991940622 546.1890079929782 280.35889454309734 562.0798029474233 372.5861860187157C577.9705979018681 464.81347749433417 615.2007911981179 586.4068402284491 580.9978428997756 618.3404587519447 "></path><path d="M555.8459497006097 373.64052357193214C571.12556023373 462.3206115292576 606.9238230185855 579.2373064659066 574.0363727317178 609.9427088923445C541.1489224448501 640.6481113187824 473.2334136223328 553.7177168041253 397.98618832364457 521.0264552188347C322.7389630249562 488.3351936335441 219.81497585356317 493.4499014065866 212.8496912980138 453.02465328295C205.88440674246442 412.5994051593133 304.58520769143934 382.9740905974137 364.5528224570075 326.98526422537867C424.52043722257565 270.99643785334365 460.84150733032334 174.5584409999836 500.69424217274036 184.27828669718218C540.5469770151575 193.99813239438072 540.5663391674896 284.9604356146068 555.8459497006097 373.64052357193214C571.12556023373 462.3206115292576 606.9238230185855 579.2373064659066 574.0363727317178 609.9427088923445 "></path><path d="M549.6121269713744 374.6948611251487C564.2805530831698 459.827745564181 598.6468853566311 572.0677727033641 567.0749330812381 601.5449590327446C535.5029808058451 631.022145362125 470.3040923362287 547.5689666280541 398.0667560494878 516.1853555061751C325.82941976274697 484.80174438429617 227.0223920782097 489.7118638464169 220.3357189048823 450.9036256477258C213.6490457315549 412.09538744903455 308.40181464257086 383.65508546961087 365.97072481751627 329.9058121524573C423.53963499246174 276.15653883530365 458.4078622958996 183.576061856078 496.6664877446199 192.90711372538863C534.9251131933402 202.23816559469924 534.943700859579 289.5619766861163 549.6121269713744 374.6948611251487C564.2805530831698 459.827745564181 598.6468853566311 572.0677727033641 567.0749330812381 601.5449590327446 "></path><path d="M543.378273724561 375.7492597135214C557.4355154150315 457.33494063426065 590.3699171770986 564.8982999759778 560.1134629131803 593.1472702083007C529.8570086492621 621.3962404406236 467.3747405325462 541.420277487139 398.14729325775295 511.3443168286717C328.9198459829597 481.26835617020436 234.22977778527815 485.9738873214035 227.82171599417268 448.7826590476577C221.41365420306727 411.59143077391195 312.2183910761242 384.3361413769644 367.38859666044686 332.82642111469215C422.5588022447696 281.3167008524199 455.9741867438976 192.5937437473287 492.63870279892126 201.53600178875132C529.3032188539448 210.478259830174 529.3210320340904 294.163578792782 543.378273724561 375.7492597135214C557.4355154150315 457.33494063426065 590.3699171770986 564.8982999759778 560.1134629131803 593.1472702083007 "></path><path d="M537.1444357365366 376.8036583018941C550.5904930056824 454.8421357043404 582.0929642563551 557.7288272485916 553.1520080039116 584.7495813838569C524.2110517514682 611.7703355191222 464.445403987653 535.271588346224 398.22784572480714 506.5032781511684C332.01028746196147 477.73496795611254 241.4371787511356 482.23591079639004 235.30772834225218 446.66169244758976C229.1782779333687 411.08747409878947 316.03498276846665 385.01719728431783 368.80648376216664 335.747030076927C421.5779847558665 286.47686286953615 453.54052645068464 201.6114256385793 488.6109331120116 210.16488985211407C523.6813397733386 218.71835406564878 523.6983784673907 298.7651808994477 537.1444357365366 376.8036583018941C550.5904930056824 454.8421357043404 582.0929642563551 557.7288272485916 553.1520080039116 584.7495813838569 "></path><path d="M530.9106130073012 377.85802637268864C543.7454858551223 452.34930025684207 573.8160265944009 550.5593240036272 546.190568353432 576.3518620418351C518.5651101124631 602.1444000800429 461.5160827015486 529.1228686877309 398.30841345065045 501.66220895608683C335.1007441997523 474.2015492244427 248.64459497578213 478.4979037537985 242.79375594912068 444.5406953299437C236.94291692245918 410.58348690608886 319.8515897195981 385.69822267409313 370.22438612267536 338.6676085215837C420.5971825257526 291.6369943690743 451.10688141626076 210.62907701225186 484.583178683891 218.79374739789864C518.0594759515213 226.95841778354543 518.0757401594803 303.3667524885353 530.9106130073012 377.85802637268864C543.7454858551223 452.34930025684207 573.8160265944009 550.5593240036272 546.190568353432 576.3518620418351 "></path><path d="M524.6767597604878 378.9123944434832C536.900448186984 449.8564648093436 565.5390584148684 543.3898207586628 539.2290981853741 567.9541426998131C512.9191379558802 592.5184646409634 458.58673089786635 522.9741490292378 398.38895065891563 496.82113976100527C338.1911704199649 470.6681304927728 255.85198068285052 474.7598967112068 250.27975303841106 442.4196982122975C244.70752539397154 410.07949971338815 323.66816615315145 386.37924806386843 371.642257965606 341.5881869662404C419.6163497780605 296.7971258686124 448.67320586425876 219.6467283859244 480.5553937381924 227.4226049436832C512.437581612126 235.19848150144207 512.4530713339916 307.9683240776229 524.6767597604878 378.9123944434832C536.900448186984 449.8564648093436 565.5390584148684 543.3898207586628 539.2290981853741 567.9541426998131 "></path><path d="M518.4429217724635 379.96679303185596C530.0554257776348 447.36365987942327 557.2621054941249 536.2203480312764 532.2676432761054 559.5564538753694C507.27318105808604 582.8925597194622 455.6573943529729 516.8254598883227 398.4695031259698 491.98010108350195C341.28161189896673 467.13474227868096 263.05938164870804 471.02192018619337 257.7657653864905 440.2987316122295C252.47214912427296 409.57554303826566 327.4847578454939 387.0603039712219 373.0601450673257 344.50879592847525C418.6355322891575 301.95728788572865 446.2395455710457 228.66441027717502 476.5276240512827 236.05149300704596C506.8157025315197 243.43857573691685 506.83041776729215 312.56992618428865 518.4429217724635 379.96679303185596C530.0554257776348 447.36365987942327 557.2621054941249 536.2203480312764 532.2676432761054 559.5564538753694 "></path><path d="M512.2090990432281 381.0211611026506C523.2104186270747 444.8708244319248 548.9851678321706 529.0508447863122 525.3062036256258 551.1587345333475C501.6272394190812 573.2666242803828 452.7280730668688 510.67674022982965 398.5500708518131 487.1390318884204C344.3720686367575 463.60132354701113 270.26679787335456 467.2839131436018 265.251792993359 438.17773449458343C260.23678811336345 409.07155584556494 331.3013647966254 387.74132936099727 374.47804742783444 347.429374373132C417.6547300590435 307.1174193852668 443.80590053662195 237.68206165084757 472.4998696231622 244.68035055283053C501.1938387097025 251.6786394548135 501.2077794593815 317.17149777337625 512.2090990432281 381.0211611026506C523.2104186270747 444.8708244319248 548.9851678321706 529.0508447863122 525.3062036256258 551.1587345333475 "></path><path d="M505.9752457964146 382.0755444322342C516.3653809589364 442.3780042432155 540.7081996526381 521.8813568001368 518.344733457568 542.7610304501146C495.981267262498 563.6407041000923 449.7987212631863 504.52803583012553 398.6306080600783 482.2979779521279C347.46249485697024 460.06792007413037 277.47418358042296 463.5459213597992 272.7377900826494 436.0567526357263C268.0013965848758 408.5675839116534 335.11794123017876 388.42237000956163 375.8959192707651 350.34996807657785C416.6738973113514 312.277566143594 441.37222498461995 246.69972828330918 468.4720846774635 253.30922335740416C495.57194437030716 259.9187184314992 495.5851106338929 321.7730846212529 505.9752457964146 382.0755444322342C516.3653809589364 442.3780042432155 540.7081996526381 521.8813568001368 518.344733457568 542.7610304501146 "></path><path d="M499.7413772908121 383.1299430206069C509.52032803200905 439.8851993132952 532.4312162143166 514.7118840727505 511.38324803072123 534.3633416256707C490.335279847126 554.014799178591 446.8693542007149 498.3793466892105 398.7111300095544 477.4569392746246C350.5529058183938 456.53453186003856 284.6815540287023 459.80794483478576 280.2237719131507 433.93578603565834C275.7659897975991 408.0636272365308 338.93450240494303 389.10342591691506 377.3137758549067 353.2705770388127C415.69304930487027 317.43772816071026 438.9385341738289 255.7174101745598 464.4442844729758 261.9381114207669C489.95003477212265 268.158812666974 489.9624265496152 326.37468672791863 499.7413772908121 383.1299430206069C509.52032803200905 439.8851993132952 532.4312162143166 514.7118840727505 511.38324803072123 534.3633416256707 "></path><path d="M493.5075698203659 384.18431109140147C502.67533614023796 437.3923638657967 524.1542938111513 507.54238082778625 504.42182363903066 525.9656222836489C484.68935346691 544.3888637395116 443.94004817339976 492.2306270307174 398.7917129941867 472.615870079543C353.64337781497375 453.0011131283686 291.8889855121379 456.0699377921942 287.70981477880827 431.8147889180122C283.53064404547865 407.5596400438302 342.7511246148636 389.7844513066904 378.7316934742045 356.1911554834694C414.71226233354537 322.5978596602484 436.50490439819407 264.73506154823235 460.4165453036443 270.5669689665515C484.3281862090945 276.3988763848706 484.33980350049376 330.9762583170063 493.5075698203659 384.18431109140147C502.67533614023796 437.3923638657967 524.1542938111513 507.54238082778625 504.42182363903066 525.9656222836489 "></path><path d="M487.27373183234147 385.23866390340703C495.83031373088875 434.89951315950924 515.8773408904078 500.37286232403267 497.46036872976197 517.5678876828379C479.0433965691161 534.7629130416432 441.0107116285064 486.0818921134352 398.87226546124094 467.7747856256724C356.73381929397544 449.4676791379097 299.0963864779954 452.33191549081357 295.1958271268877 429.693776541577C291.2952677757801 407.0556375923404 346.56771630720607 390.4654614376767 380.14958057592423 359.11171866933705C413.7314448446424 327.75797590099745 434.07124410498113 273.75269766311584 456.3887756167346 279.195811253547C478.7063071284882 284.6389248439782 478.7171499337942 335.57781464730476 487.27373183234147 385.23866390340703C495.83031373088875 434.89951315950924 515.8773408904078 500.37286232403267 497.46036872976197 517.5678876828379 "></path><path d="M481.03989384431713 386.2930777505688C488.98529132153953 432.406723488378 507.60038796966444 493.20340485543556 490.49891382049327 509.17021411718326C473.39743967132205 525.137023378931 438.0813750836131 479.9332182313092 398.9528179282952 462.93376220695814C359.8242607729772 445.934306182607 306.30378744385285 448.59395422458914 302.6818394749672 427.5728252002981C299.0598915060815 406.551696176007 350.38430799954847 391.1465326038192 381.5674676776439 362.03234289036095C412.7506273557393 332.91815317690276 431.6375838117682 282.7703948131555 452.361005929825 287.8247145756988C473.0844280478819 292.87903433824204 473.09449636709456 340.1794320127596 481.03989384431713 386.2930777505688C488.98529132153953 432.406723488378 507.60038796966444 493.20340485543556 490.49891382049327 509.17021411718326 "></path><path d="M474.8060558562927 387.34743056257435C482.1402689121903 429.9138727820905 499.32343504892106 486.033886351682 483.5374589112246 500.7724795163723C467.75148277352804 515.5110726810625 435.1520385387198 473.78448331402706 399.0333703953494 458.09267775308757C362.91470225197895 442.4008721921481 313.5111884097103 444.85593192320846 310.16785182304665 425.4518128238629C306.8245152363829 406.0476937245173 354.20089969189087 391.82754273480543 382.9853547793636 364.95290607622866C411.76980986683634 338.0782694176518 429.20392351855526 291.788030928039 448.3332362429154 296.4535568626943C467.46254896727555 301.1190827973496 467.471842800395 344.78098834305814 474.8060558562927 387.34743056257435C482.1402689121903 429.9138727820905 499.32343504892106 486.033886351682 483.5374589112246 500.7724795163723 "></path><path d="M468.5722178682683 388.4018444097361C475.2952465028412 427.4210831109593 491.04648212817756 478.8644288830849 476.5760040019558 492.3748059507175C462.1055258757341 505.8851830183502 432.2227019938265 467.63580943190107 399.11392286240357 453.25165433437326C366.0051437309807 438.86749923684533 320.7185893755678 441.1179706569841 317.6538641711261 423.33086148258394C314.58913896668435 405.5437523081838 358.0174913842333 392.508613900948 384.4032418810833 367.87353029725256C410.78899237793325 343.23844669355714 426.7702632253423 300.80572807807874 444.3054665560058 305.08246018484607C461.8406698866693 309.35919229161345 461.84918923369537 349.3826057085129 468.5722178682683 388.4018444097361C475.2952465028412 427.4210831109593 491.04648212817756 478.8644288830849 476.5760040019558 492.3748059507175 "></path><path d="M462.33839513903297 389.45618196295254C468.4502393522811 424.92821714588274 482.76954446622324 471.69489512054236 469.61456435147613 483.97705609111745C456.45958423672914 496.25921706169265 429.29338070772224 461.4870592558298 399.1944905882469 448.4105546217136C369.0956004687715 435.3340499875973 327.92600560021435 437.37993309681434 325.1398917779946 421.2098338473597C322.35377795577483 405.039734597905 361.8340983353648 393.18960877314515 385.82114424159204 370.79407822433114C409.80819014781935 348.39854767551714 424.33661819091844 309.8233489341731 440.27771212788525 313.7112872130526C456.21880606485206 317.599225491932 456.22655092578486 353.9841467800224 462.33839513903297 389.45618196295254C468.4502393522811 424.92821714588274 482.76954446622324 471.69489512054236 469.61456435147613 483.97705609111745 "></path><path d="M456.1045418922195 390.5105805513253C461.6052016841428 422.4354122159624 474.4925762866908 464.5254223931561 462.6530941834184 475.5793672666737C450.8136120801461 486.6333121401914 426.36402890403986 455.3383701149148 399.275027796512 443.5695159442102C372.1860266889842 431.80066177350557 335.13339130728275 433.6419565718009 332.62588886728497 419.0888672472917C330.1183864272872 404.5357779227825 365.6506747689182 393.87066468049863 387.2390160845227 373.71468718656604C408.8273574001272 353.5587096926334 421.90294263891644 318.8410308254238 436.2499271821866 322.34017527641527C450.5969117254567 325.83931972740675 450.60388210029623 358.5857488866881 456.1045418922195 390.5105805513253C461.6052016841428 422.4354122159624 474.4925762866908 464.5254223931561 462.6530941834184 475.5793672666737 "></path><path d="M449.87068864540606 391.5649638809089C454.7601640160045 419.94259202725306 466.2156081071583 457.35593440698074 455.6916240153606 467.18166318344083C445.167639923563 477.007391959901 423.4346771003575 449.1896657152107 399.3555650047772 438.72846200791776C375.2764529091969 428.26725830062475 342.34077701435115 429.90396478799835 340.11188595657535 416.96788538843464C337.88299489879955 404.0318059888709 369.4672512024715 394.551705329063 388.65688792745334 376.6352808900118C407.84652465243516 358.7188564509606 419.46926708691444 327.8586974578854 432.2221422364879 330.9690480809889C444.9750173860613 334.07939870409245 444.9812132748076 363.1873357345648 449.87068864540606 391.5649638809089C454.7601640160045 419.94259202725306 466.2156081071583 457.35593440698074 455.6916240153606 467.18166318344083 "></path><path d="M443.63686591617073 392.6193319517035C447.9151568654444 417.44975657975465 457.9386704452039 450.18643116201633 448.730184364881 458.78394384141893C439.52169828455806 467.3814565208216 420.5053558142532 443.0409460567176 399.43613273062044 433.8873928128362C378.3669096469877 424.73383956895486 349.54819323899767 426.1659577454068 347.59791356344385 414.8468882707885C345.64763388789004 403.5278187961702 373.28385815360303 395.23273071883835 390.0747902879621 379.5558593346685C406.8657224223212 363.87898795049875 417.03562205249057 336.8763488315579 428.1943878083673 339.5979056267735C439.3531535642441 342.3194624219891 439.3585749668971 367.7889073236524 443.63686591617073 392.6193319517035C447.9151568654444 417.44975657975465 457.9386704452039 450.18643116201633 448.730184364881 458.78394384141893 "></path><path d="M437.40302792814634 393.6737000224981C441.07013445609516 414.9569211322562 449.6617175244605 443.01692791705193 441.7687294556123 450.3862244993971C433.87574138676405 457.7555210817422 417.5760192693599 436.89222639822447 399.5166851976747 429.04632361775475C381.4573511259895 421.200420837285 356.7555942048552 422.42795070281517 355.0839259115233 412.72589115314236C353.41225761819146 403.0238316034696 377.10044984594543 395.91375610861365 391.4926773896818 382.47643777932524C405.88490493341817 369.0391194500369 414.60196175927763 345.89400020523044 424.1666181214577 348.2267631725581C433.7312744836378 350.55952613988575 433.7359214001975 372.39047891274 437.40302792814634 393.6737000224981C441.07013445609516 414.9569211322562 449.6617175244605 443.01692791705193 441.7687294556123 450.3862244993971 "></path><path d="M431.16918994012195 394.7280986108708C434.225112046746 412.4641162023359 441.3847646037171 435.8474551896657 434.80727454634354 441.98853567495325C428.22978448897004 448.12961616024086 414.6466827244666 430.7435372573094 399.59723766472894 424.2052849402513C384.54779260499123 417.6670326231932 363.96299517071265 418.68997417780173 362.56993825960274 410.6049245530744C361.1768813484929 402.519874928347 380.9170415382879 396.59481201596714 392.9105644914015 385.39704674156013C404.90408744451514 374.1992814671531 412.1683014660647 354.9116820964811 420.1388484345481 356.8556512359208C428.1093954030315 358.7996203753605 428.1132678334979 376.99208101940576 431.16918994012195 394.7280986108708C434.225112046746 412.4641162023359 441.3847646037171 435.8474551896657 434.80727454634354 441.98853567495325 "></path><path d="M424.93535195209756 395.78248194045443C427.3800896373968 409.9712960136265 433.10781168297365 428.67796720349037 427.84581963707484 433.5908315917204C422.58382759117603 438.5036959799505 411.71734617957327 424.59483285760535 399.6777901317831 419.3642310039589C387.638234083993 414.13362915031234 371.1703961365701 414.9519823939992 370.05595060768223 408.4839426942173C368.9415050787943 402.01590299443546 384.7336332306303 397.2758526645315 394.3284515931212 388.3176404450059C403.9232699556121 379.3594282254803 409.73464117285175 363.92934872894267 416.1110787476385 365.4845240404945C422.4875163224252 367.0396993520462 422.49061426679833 381.5936678672824 424.93535195209756 395.78248194045443C427.3800896373968 409.9712960136265 433.10781168297365 428.67796720349037 427.84581963707484 433.5908315917204 "></path><path d="M418.7015139640732 396.8368652700381C420.5350672280476 407.47847582491715 424.83085876223026 421.508479217315 420.88436472780614 425.1931275084876C416.937870693382 428.8777757996601 408.78800963467995 418.4461284579013 399.7583425988373 414.52317706766644C390.72867556299474 410.6002256774315 378.37779710242756 411.2139906101967 377.5419629557617 406.36296083536024C376.70612880909573 401.51193106052386 388.55022492297275 397.9568933130959 395.7463386948409 391.2382341484517C402.9424524667091 384.5195749838075 407.3009808796388 372.9470153614043 412.0833090607289 374.1133968450681C416.8656372418189 375.27977832873194 416.86796070009876 386.1952547151591 418.7015139640732 396.8368652700381C420.5350672280476 407.47847582491715 424.83085876223026 421.508479217315 420.88436472780614 425.1931275084876 "></path><path d="M412.4676759760488 397.8912333408327C413.6900448186984 404.98564037741875 416.5539058414868 414.3389759723507 413.92290981853745 416.7954081664657C411.291913795588 419.25184036058073 405.85867308978663 412.2974087994082 399.83889506589156 409.6821078725849C393.8191170419965 407.06680694576164 385.5851980682851 407.47598356760506 385.0279753038411 404.2419637177141C384.47075253939715 401.0079438678232 392.36681661531514 398.6379187028712 397.1642257965606 394.1588125931084C401.96163497780606 389.6797064833456 404.8673205864259 381.96466673507683 408.0555393738192 382.7422543908527C411.2437581612126 383.5198420466286 411.2453071333992 390.7968263042467 412.4676759760488 397.8912333408327C413.6900448186984 404.98564037741875 416.5539058414868 414.3389759723507 413.92290981853745 416.7954081664657 "></path><path d="M406.2338379880244 398.94561667041637C406.8450224093492 402.49282018870935 408.27695292074344 407.16948798617534 406.9614549092687 408.39770408323284C405.645956897794 409.62592018029034 402.9293365448933 406.14870439970406 399.91944753294575 404.84105393629244C396.90955852099825 403.5334034728808 392.79259903414254 403.73799178380256 392.51398765192056 402.1209818588571C392.2353762696986 400.5039719339116 396.1834083076576 399.31895935143564 398.5821128982803 397.0794062965542C400.980817488903 394.8398532416728 402.43366029321294 390.9823333675384 404.0277696869096 391.37112719542637C405.6218790806063 391.7599210233143 405.62265356669957 395.39841315212334 406.2338379880244 398.94561667041637C406.8450224093492 402.49282018870935 408.27695292074344 407.16948798617534 406.9614549092687 408.39770408323284 "></path></g></svg>