<svg width="41" height="42" viewBox="0 0 41 42" fill="none" xmlns="http://www.w3.org/2000/svg">
<path d="M40.88 30.1664C40.88 36.3595 35.8595 41.38 29.6664 41.38C23.4734 41.38 18.4529 36.3595 18.4529 30.1664C18.4529 23.9734 23.4734 18.9529 29.6664 18.9529C35.8595 18.9529 40.88 23.9734 40.88 30.1664Z" fill="#D1CDCF"/>
<path d="M33.7769 19.7302C32.8986 27.3514 26.8518 33.3992 19.231 34.2791C18.7288 33.0057 18.4529 31.6183 18.4529 30.1664C18.4529 23.9734 23.4734 18.9529 29.6664 18.9529C31.1175 18.9529 32.5041 19.2285 33.7769 19.7302Z" fill="#7A7175"/>
<path d="M33.1577 17.0788C33.1577 17.4156 33.1476 17.75 33.1278 18.0818C31.6709 17.437 30.0589 17.0788 28.3632 17.0788C21.8549 17.0788 16.5788 22.3549 16.5788 28.8632C16.5788 30.5589 16.937 32.1709 17.5818 33.6278C17.25 33.6476 16.9156 33.6577 16.5788 33.6577C7.4226 33.6577 0 26.2351 0 17.0788C0 7.9226 7.4226 0.5 16.5788 0.5C25.7351 0.5 33.1577 7.9226 33.1577 17.0788Z" fill="#1B1719"/>
</svg>
