<svg width="98" height="158" viewBox="0 0 98 158" fill="none" xmlns="http://www.w3.org/2000/svg">
<path fill-rule="evenodd" clip-rule="evenodd" d="M46.1977 141.889C56.1866 130.518 65.5822 113.384 71.9987 93.1814C78.4153 72.9784 80.6276 53.5635 79.0303 38.5129C78.2316 30.9871 76.4822 24.5699 73.8441 19.6937C71.2071 14.8196 67.6944 11.5049 63.3692 10.1312C61.5875 9.56531 59.7283 9.34799 57.8107 9.46001C55.0733 9.61991 52.2167 10.451 49.2963 11.8972C44.3281 14.3576 39.1965 18.5894 34.2017 24.2752C24.2129 35.6459 14.8173 52.7793 8.40071 72.9824C1.98413 93.1854 -0.228195 112.6 1.36911 127.651C2.16782 135.177 3.91724 141.594 6.55534 146.47C9.1923 151.344 12.705 154.659 17.0302 156.033C21.3555 157.406 26.137 156.726 31.1031 154.267C33.7685 152.947 36.4809 151.117 39.1939 148.826C41.538 146.847 43.8826 144.524 46.1977 141.889ZM16.9222 156.373C23.9626 158.609 32.1138 155.514 40.1892 148.441C52.4733 137.681 64.5822 117.712 72.3388 93.2894C85.1946 52.812 81.2272 15.4286 63.4772 9.7911C61.9673 9.31155 60.4064 9.07717 58.806 9.07461C41.5927 9.04716 19.8229 35.8401 8.06061 72.8743C-4.79519 113.352 -0.827717 150.735 16.9222 156.373ZM63.7982 133.626C73.787 122.255 83.1826 105.122 89.5992 84.9185C96.0158 64.7154 98.2281 45.3006 96.6308 30.25C95.8321 22.7242 94.0827 16.307 91.4446 11.4308C88.8076 6.55668 85.2949 3.242 80.9697 1.86828C76.6444 0.494566 71.8629 1.17495 66.8968 3.63428C64.2314 4.95424 61.519 6.78401 58.806 9.07461C56.4619 11.0537 54.1173 13.3768 51.8022 16.0122C41.8133 27.383 32.4177 44.5164 26.0012 64.7194C19.5846 84.9225 17.3723 104.337 18.9696 119.388C19.7683 126.914 21.5177 133.331 24.1558 138.207C26.7928 143.081 30.3055 146.396 34.6307 147.77C36.4124 148.336 38.2716 148.553 40.1892 148.441C42.9266 148.281 45.7832 147.45 48.7036 146.004C53.6718 143.543 58.8034 139.311 63.7982 133.626ZM34.5227 148.11C36.0326 148.589 37.5936 148.824 39.1939 148.826C56.4072 148.854 78.1771 122.061 89.9393 85.0265C102.795 44.5491 98.8276 7.16565 81.0777 1.52819C74.0373 -0.707861 65.8862 2.38634 57.8107 9.46001C45.5266 20.2203 33.4177 40.189 25.6611 64.6114C12.8053 105.089 16.7727 142.472 34.5227 148.11Z" fill="#EDE8E8"/>
<path d="M72.3388 93.2894C64.5822 117.712 52.4733 137.681 40.1892 148.441C42.9266 148.281 45.7832 147.45 48.7036 146.004C53.6718 143.543 58.8034 139.311 63.7982 133.626C73.787 122.255 83.1826 105.122 89.5992 84.9185C96.0158 64.7154 98.2281 45.3006 96.6308 30.25C95.8321 22.7242 94.0827 16.307 91.4446 11.4308C88.8076 6.55668 85.2949 3.242 80.9697 1.86828C76.6444 0.494566 71.8629 1.17495 66.8968 3.63428C64.2314 4.95424 61.519 6.78401 58.806 9.07461C60.4064 9.07717 61.9673 9.31155 63.4772 9.7911C81.2272 15.4286 85.1946 52.812 72.3388 93.2894Z" fill="#EDE8E8"/>
<path d="M57.8107 9.46001C55.0733 9.61991 52.2167 10.451 49.2963 11.8972C44.3281 14.3576 39.1965 18.5894 34.2017 24.2752C24.2129 35.6459 14.8173 52.7793 8.40071 72.9824C1.98413 93.1854 -0.228195 112.6 1.36911 127.651C2.16782 135.177 3.91724 141.594 6.55534 146.47C9.1923 151.344 12.705 154.659 17.0302 156.033C21.3555 157.406 26.137 156.726 31.1031 154.267C33.7685 152.947 36.4809 151.117 39.1939 148.826C37.5936 148.824 36.0326 148.589 34.5227 148.11C16.7727 142.472 12.8053 105.089 25.6611 64.6114C33.4177 40.189 45.5266 20.2203 57.8107 9.46001Z" fill="#EDE8E8"/>
</svg>
