<svg width="177" height="167" viewBox="0 0 177 167" fill="none" xmlns="http://www.w3.org/2000/svg">
<g clip-path="url(#clip0_850_139)">
<path d="M126.042 70.497C127.174 70.077 128.873 69.3528 130.03 69.9087C129.584 70.9432 128.123 71.2011 127.129 71.6288C123.929 73.0124 120.122 75.2437 117.737 77.8162C117.007 78.6053 116.399 79.4916 115.941 80.4614C115.817 80.7208 115.701 80.9786 115.604 81.2504C115.385 81.8387 116.644 81.3353 116.819 81.2705C117.53 80.9987 119.676 79.7819 120.335 80.642C119.773 81.3662 118.706 81.8712 117.918 82.3174C116.916 82.8795 115.908 83.4369 114.945 84.07C113.2 85.2281 111.506 86.7398 111.04 88.8816C110.355 92.0177 106.478 88.1311 105.683 87.1475C103.982 85.0274 102.968 82.4857 102.031 79.958C91.3078 91.2348 103.388 100.416 109.14 109.703C123.011 132.09 113.497 161.628 87.8119 165.961C76.7395 167.829 63.8196 161.861 57.4345 153.668C55.0947 150.674 53.0188 147.085 52.3026 143.308C51.9847 141.614 51.429 136.938 53.0126 135.782C56.6581 133.11 57.311 140.916 58.0796 142.681C61.81 151.211 69.4036 159.125 82.6415 158.847C94.9919 158.589 105.391 148.217 106.555 136.861C108.191 120.89 95.0058 112.153 85.2267 104.53C85.324 104.607 85.1804 106.386 85.2128 106.638C85.2915 107.309 85.4659 107.963 85.7052 108.597C86.1836 109.877 86.9461 111.035 87.7795 112.109C89.5575 114.411 91.6057 116.454 93.041 119.002C93.5905 119.978 94.7789 121.783 93.8482 122.823C93.2478 123.495 91.9869 123.572 91.1658 123.767C90.0283 124.026 88.8136 124.337 87.7734 124.886C86.5324 125.54 85.4598 126.463 84.4319 127.42C83.7589 128.047 83.5197 129.069 82.7835 129.652C81.1799 130.932 82.163 128.694 82.5381 128.029C82.7187 127.712 83.6046 125.881 83.9333 125.868C77.2504 126.134 73.7993 131.676 70.4254 134.863C69.9855 135.277 69.1521 135.484 68.5825 135.323C69.2555 131.274 73.2822 127.944 76.4756 125.83C76.9787 125.493 78.8478 123.852 79.4096 123.929C77.6053 123.677 75.7965 124.911 74.3611 125.856C73.4566 126.451 72.5846 127.084 71.6725 127.674C71.194 127.984 70.3991 128.753 69.8312 128.779C68.6937 128.836 70.2386 126.929 70.5797 126.534C71.2912 125.72 72.1386 125.015 73.0106 124.381C73.4767 124.045 78.7243 121.213 78.7629 121.343C78.2134 119.448 77.1346 122.183 75.531 121.343C76.8043 118.736 81.4778 119.531 85.2267 119.402C84.367 114.656 77.4772 110.35 74.8843 105.177C74.5355 102.24 76.1839 101.303 76.8244 99.357C65.4417 89.0622 52.2764 81.1346 50.9706 62.4983C50.7376 59.2 50.8997 55.857 51.4429 52.5973C51.9662 49.4935 52.7811 46.4547 53.7689 43.4745C54.7458 40.5313 55.8756 37.6407 57.027 34.764C58.183 31.8795 59.2634 28.9703 60.2774 26.0272C61.3254 23.0007 62.1388 19.9819 62.5462 16.7932C62.6373 16.0891 62.6049 15.4035 63.1019 14.8414C65.0157 12.6812 68.4544 10.5919 70.2247 8.63242C71.336 7.39092 72.5707 6.26679 73.8055 5.15346C75.0603 4.0355 76.3258 2.93607 77.5282 1.76561C77.8199 1.48149 77.9943 1.11861 78.2397 0.802064C78.4017 0.588972 78.5947 0.382057 78.8277 0.252349C78.925 0.201392 79.2089 0.0840372 79.3185 0.136538C79.4991 0.226098 79.1765 0.653826 79.1055 0.757284C79.0407 0.846844 78.0714 1.92157 78.1301 2.04973C78.2196 2.23812 79.2614 1.40428 79.3834 1.36413C79.939 1.18964 80.2816 0.769637 80.8249 0.568898C81.4577 0.337277 82.1106 0.116464 82.7835 0.0269039C83.0999 -0.0194204 83.4225 -0.00552307 83.7265 0.0655075C83.9596 0.122641 84.2112 0.168965 84.4241 0.272423C84.793 0.446911 84.2822 0.660003 84.1016 0.751107C83.9472 0.828314 83.7913 0.917875 83.6293 0.982729C83.2542 1.13869 82.8668 1.23597 82.4733 1.3456C81.7232 1.54634 80.916 1.72701 80.243 2.13466C79.9776 2.28907 79.7461 2.51606 79.5516 2.74923C79.2151 3.14916 79.7908 3.22637 80.1134 3.23409C80.6057 3.24644 81.1027 3.16924 81.5935 3.11674C82.7511 2.98857 83.9796 2.82026 85.1418 2.98857C85.4073 3.02717 85.6789 3.08431 85.9305 3.19549C86.0602 3.24644 86.2022 3.33755 86.3117 3.42711C86.6606 3.7452 85.8209 3.90579 85.6203 3.97065C85.2977 4.06793 84.9674 4.13896 84.631 4.18992C83.9071 4.30727 83.1709 4.33352 82.4347 4.38448C81.7232 4.44315 81.0055 4.51419 80.3017 4.64389C79.6874 4.7597 79.0407 4.90794 78.5175 5.26464C78.2335 5.46383 78.0128 5.7356 77.8446 6.03362C77.6702 6.33782 77.4248 6.64202 77.5282 7.00952C77.6378 7.38475 78.0591 7.51446 78.4079 7.56541C78.6008 7.59166 78.8015 7.59784 78.996 7.60556C79.7383 7.61174 80.5023 7.48203 81.2385 7.62409C81.3867 7.65034 81.5426 7.70902 81.6722 7.7924C81.7355 7.83101 81.9099 7.96071 81.9099 8.03792C81.9176 8.20006 81.5549 8.17381 81.4454 8.20623C81.2895 8.25101 81.1351 8.30969 80.9731 8.33594C80.6304 8.39307 80.2955 8.45175 79.959 8.51661C79.2923 8.64014 78.6271 8.7822 77.9742 8.95669C76.7071 9.29331 75.4739 9.73802 74.304 10.3279C73.2174 10.8776 72.171 11.5555 71.3175 12.4295C70.5087 13.2633 69.9407 14.2778 69.7015 15.422C69.4299 16.7037 69.5333 18.0285 69.6629 19.3225C69.6815 19.4831 69.6753 19.6653 69.7139 19.8197C75.3767 17.9776 77.1732 12.1438 82.0982 8.97522C84.0306 7.7399 86.4414 6.90606 89.7505 6.88753C95.5228 6.84893 119.799 14.5696 113.666 22.4062C112.011 24.5217 99.3814 29.2606 92.9824 30.1655C90.1317 30.5732 86.5772 29.3842 84.58 30.1655C79.4482 32.1775 79.8032 37.5048 81.3481 43.7462C81.433 44.0875 86.5834 41.0424 86.997 40.7522C88.8074 39.4906 90.5654 38.1194 92.5302 37.091C93.1444 36.7683 93.751 36.4316 94.4039 36.1923C94.6169 36.1089 94.8314 36.0317 95.0444 36.0317C95.1987 36.024 95.296 35.9792 95.3407 36.1274C95.3808 36.2633 95.3546 36.393 95.2311 36.4641C95.0768 36.5552 94.9024 36.6138 94.7342 36.6911C94.4363 36.8192 94.0998 37.0014 94.0689 37.3628C94.0427 37.6932 96.3362 37.3628 96.5893 37.3442C98.0309 37.2145 99.8398 36.8269 101.081 37.809C101.166 37.8677 101.287 37.9897 101.294 38.1009C101.308 38.2553 101.152 38.2491 101.03 38.2553C100.537 38.2939 100.059 38.1456 99.5558 38.1781C98.7609 38.2228 97.9784 38.158 97.1897 38.3402C96.3362 38.5332 95.5228 38.8637 94.6817 39.103C94.5783 39.1354 94.2295 39.2837 94.1585 39.3671C94.0288 39.523 94.3066 39.7099 94.41 39.7948C94.6493 39.9878 95.0505 40.099 95.3407 40.2086C96.4535 40.6348 97.7129 40.3383 98.8705 40.7583C99.7302 41.0687 100.855 41.5597 100.926 42.6206C100.932 42.7827 100.105 42.3611 99.8845 42.233C99.5172 42.0183 98.7671 41.6833 98.6436 41.657C97.591 41.3142 96.4334 41.3466 95.3484 41.4686C94.197 41.5983 93.1506 41.8763 92.0779 42.3102C91.8511 42.4013 91.6257 42.5032 91.4498 42.6792C91.3278 42.7951 91.2121 42.9371 91.1272 43.0792C91.0176 43.2676 91.05 43.3957 91.1334 43.5903C91.192 43.7262 91.2831 43.8482 91.3927 43.9454C91.6257 44.1462 91.9483 44.2435 92.2462 44.2944C92.9052 44.4179 93.6862 44.3732 94.3004 44.6635C94.7727 44.8905 95.012 45.3552 95.083 45.8664C95.0953 45.9636 95.1339 46.1319 95.0505 46.203C94.9271 46.3188 94.7203 46.1582 94.6045 46.1119C93.8035 45.7891 91.6766 45.2271 91.4251 45.2008C90.2814 45.0773 89.13 45.258 88.0573 45.6718C85.9305 46.4995 84.2698 48.1301 82.5242 49.5461C81.7355 50.1853 80.0239 52.2359 78.8987 51.9194C78.2258 51.7248 78.11 50.6316 77.948 50.0757C77.6578 49.0612 77.3214 48.0652 76.9278 47.0893C76.6623 46.4284 76.4879 45.6656 76.1777 45.0387C75.7702 58.5994 86.5772 66.5393 91.689 76.7245C91.2754 75.903 93.1444 73.3428 93.5195 72.7144C94.6817 70.8012 95.813 68.854 97.2545 67.1416C101.255 62.381 104.992 72.7731 105.922 75.2761C106.251 76.1547 106.543 77.0534 106.878 77.9398C107.311 79.0515 107.745 80.3008 108.494 81.2504C110.33 78.6763 110.304 74.2415 113.005 72.5337C113.212 72.404 113.433 72.2944 113.666 72.1971C113.71 72.4565 113.698 72.6572 113.646 72.8256C113.497 73.3228 112.638 74.2153 112.618 74.836C114.227 74.816 116.347 72.0936 117.51 71.1764C118.861 70.1156 121.389 67.7361 123.238 68.9776C122.83 69.6107 121.764 70.1418 121.13 70.6066C120.349 71.1826 119.572 71.7771 118.861 72.4364C118.145 73.0958 117.466 73.7953 116.807 74.5133C116.231 75.1464 115.288 76.7631 114.596 77.2418C116.916 75.6374 119.392 74.0732 121.803 72.6047C123.153 71.7833 124.556 71.0529 126.042 70.497Z" fill="#EDE8E8"/>
<path d="M47.3441 110.809V120.923C21.3607 119.481 0.75 98.6009 0.75 73.0454C0.75 47.496 21.3607 26.6161 47.3441 25.1738V35.5211C26.8676 37.9902 11.0662 53.898 11.0662 73.1673C11.0662 92.4321 26.8676 108.338 47.3441 110.809Z" fill="#EDE8E8"/>
<path d="M175.752 27.2312V37.3315H146.403V76.5573H166.239V86.3086H146.403V118.717H135.253V86.5402L128.68 86.5541L128.692 76.8415L135.111 76.8353L135.091 26.998L175.752 27.2312Z" fill="#EDE8E8"/>
</g>
<defs>
<clipPath id="clip0_850_139">
<rect width="176" height="167" fill="white" transform="translate(0.75)"/>
</clipPath>
</defs>
</svg>
